<?xml version="1.0" encoding="UTF-8" standalone="no"?>
<!-- Generator: Adobe Illustrator 26.0.0, SVG Export Plug-In . SVG Version: 6.00 Build 0)  -->

<svg
   version="1.1"
   id="Layer_1"
   x="0px"
   y="0px"
   viewBox="0 0 391.2 94.3"
   style="enable-background:new 0 0 391.2 94.3;"
   xml:space="preserve"
   sodipodi:docname="logoWhite.svg"
   inkscape:version="1.2.1 (9c6d41e410, 2022-07-14)"
   xmlns:inkscape="http://www.inkscape.org/namespaces/inkscape"
   xmlns:sodipodi="http://sodipodi.sourceforge.net/DTD/sodipodi-0.dtd"
   xmlns="http://www.w3.org/2000/svg"
   xmlns:svg="http://www.w3.org/2000/svg"><defs
   id="defs39" /><sodipodi:namedview
   id="namedview37"
   pagecolor="#ffffff"
   bordercolor="#666666"
   borderopacity="1.0"
   inkscape:showpageshadow="2"
   inkscape:pageopacity="0.0"
   inkscape:pagecheckerboard="0"
   inkscape:deskcolor="#d1d1d1"
   showgrid="false"
   inkscape:zoom="2.2750511"
   inkscape:cx="189.4463"
   inkscape:cy="69.448991"
   inkscape:window-width="1920"
   inkscape:window-height="986"
   inkscape:window-x="350"
   inkscape:window-y="1717"
   inkscape:window-maximized="1"
   inkscape:current-layer="Layer_1" />
<style
   type="text/css"
   id="style2">
	.st0{fill:url(#SVGID_1_);}
	.st1{fill:url(#SVGID_00000062894019909574687500000000157702948358055810_);}
	.st2{fill:#010101;}
</style>
<linearGradient
   id="SVGID_1_"
   gradientUnits="userSpaceOnUse"
   x1="0"
   y1="64.9441"
   x2="99.6"
   y2="64.9441"
   gradientTransform="matrix(1 0 0 -1 0 93.2756)">
	<stop
   offset="0"
   style="stop-color:#502F8C"
   id="stop4" />
	<stop
   offset="1"
   style="stop-color:#241240"
   id="stop6" />
</linearGradient>
<path
   class="st0"
   d="M53.9,25.6c-2.6,1.4-5.7,1.4-8.3,0L4.1,0.6C1.9-0.7,0,0.3,0,2.9v21.4c0.2,2.9,1.7,5.6,4.1,7.2l41.5,24.2  c2.6,1.3,5.7,1.3,8.3,0l41.5-24.2c2.5-1.6,4-4.3,4.2-7.2V2.9c0-2.6-1.9-3.7-4.2-2.3L53.9,25.6z"
   id="path9"
   style="fill:#ffffff;fill-opacity:1" />
<linearGradient
   id="SVGID_00000085213257605676695470000005910983829185276558_"
   gradientUnits="userSpaceOnUse"
   x1="24.1"
   y1="20.7272"
   x2="75.4"
   y2="20.7272"
   gradientTransform="matrix(1 0 0 -1 0 93.2756)">
	<stop
   offset="0"
   style="stop-color:#502F8C"
   id="stop11" />
	<stop
   offset="1"
   style="stop-color:#241240"
   id="stop13" />
</linearGradient>
<path
   style="fill:#ffffff;fill-opacity:1"
   d="M28.2,52.8c-2.2-1.4-4.1-0.4-4.1,2.2v20.5  c0.1,2.9,1.7,5.6,4.2,7.1L45.5,92c2.7,1.3,5.8,1.3,8.5,0l17.2-9.4c2.5-1.5,4.1-4.2,4.2-7.1V55c0-2.6-1.8-3.7-4.1-2.2l-17.5,11  c-2.5,1.4-5.6,1.4-8.2,0L28.2,52.8z"
   id="path16" />
<g
   id="g34"
   style="fill:#ffffff;fill-opacity:1">
	<path
   class="st2"
   d="M147.1,25.8c1.4,0.9,1.7,2.7,0.9,4.1l-13,19.4v15.9c-0.1,1.6-1.5,2.9-3.1,2.7c-1.5-0.1-2.7-1.2-2.7-2.7V49.2   l-12.9-19.4c-0.9-1.4-0.5-3.2,0.9-4.1s3.2-0.5,4.1,0.9l11,16.4l11-16.4C144,25.3,145.9,24.9,147.1,25.8L147.1,25.8z"
   id="path18"
   style="fill:#ffffff;fill-opacity:1" />
	<path
   class="st2"
   d="M161.1,68.1c-3.4,0.1-6.6-1.7-8.1-4.7c-0.6-1.4-1-2.9-1.1-4.5V46.1c-0.1-3.4,1.7-6.6,4.7-8.1   c1.4-0.6,2.9-1,4.5-1.1h12.7c3.4-0.1,6.6,1.7,8.1,4.7c0.6,1.4,1,2.9,1.1,4.5v12.7c0.1,3.4-1.7,6.6-4.7,8.1c-1.4,0.6-2.9,1-4.5,1.1   H161.1z M158.2,61c0.6,1.1,1.7,1.6,3,1.5H174c0.7,0,1.4-0.2,2-0.6c1.1-0.6,1.7-1.7,1.5-3V46.1c0-0.7-0.2-1.4-0.5-2.1   c-0.6-1-1.7-1.6-3-1.5h-12.7c-0.7,0-1.4,0.2-2,0.6c-1.1,0.6-1.6,1.7-1.5,3v12.7C157.6,59.6,157.9,60.4,158.2,61z M157.6,58.9   L157.6,58.9z M161.1,42.6L161.1,42.6z M174,62.5L174,62.5z M177.5,46.2L177.5,46.2z"
   id="path20"
   style="fill:#ffffff;fill-opacity:1" />
	<path
   class="st2"
   d="M195.8,68.1c-1.5,0-3.1-0.4-4.5-1.1c-3.1-1.5-5-4.7-4.7-8.1V39.8c0-1.6,1.2-2.9,2.9-2.9c1.6,0,2.9,1.2,2.9,2.9   l0,0v19.1c-0.1,1.2,0.4,2.4,1.5,3c0.6,0.4,1.4,0.5,2,0.6h12.7c1.2,0.1,2.4-0.4,3-1.5c0.4-0.6,0.5-1.4,0.6-2V39.8   c0-1.6,1.2-2.9,2.9-2.9c1.6,0,2.9,1.2,2.9,2.9l0,0v19.1c0,1.5-0.4,3.1-1.1,4.5c-1.5,3.1-4.7,4.9-8.1,4.7H195.8L195.8,68.1z    M195.8,62.5L195.8,62.5z M212.2,58.9L212.2,58.9L212.2,58.9z"
   id="path22"
   style="fill:#ffffff;fill-opacity:1" />
	<path
   class="st2"
   d="M234.4,66.6L221.7,41c-0.7-1.4-0.4-3.1,1-3.9c1.4-0.7,3.1-0.4,3.9,1c0.1,0.1,0.1,0.2,0.2,0.4L237,59l10.2-20.5   c0.6-1.5,2.2-2.1,3.6-1.6c1.5,0.6,2.1,2.2,1.6,3.6c0,0.1-0.1,0.2-0.2,0.4l-12.7,25.6c-0.7,1.4-2.4,2-3.9,1.2   C235,67.6,234.7,67.1,234.4,66.6z"
   id="path24"
   style="fill:#ffffff;fill-opacity:1" />
	<path
   class="st2"
   d="M265.3,68.1c-1.5,0-3.1-0.4-4.5-1.1c-3.1-1.5-5-4.7-4.7-8.1v-13c0-1.5,0.4-3,1.1-4.4c1.6-3,4.7-4.7,8.1-4.6   H278c1.5,0,3.1,0.4,4.5,1.1c3.1,1.5,4.9,4.7,4.7,8.1v6.4c0,1.6-1.2,2.9-2.9,2.9l0,0h-22.7v3.5c-0.1,1.2,0.4,2.4,1.5,3   c0.6,0.4,1.4,0.5,2,0.6h19.1c1.6,0,2.9,1.2,2.9,2.9c0,1.6-1.2,2.9-2.9,2.9L265.3,68.1L265.3,68.1z M281.5,49.7v-3.5   c0.1-1.2-0.4-2.4-1.5-3c-0.6-0.4-1.4-0.5-2-0.6h-12.7c-1.2-0.1-2.4,0.4-3,1.5c-0.2,0.6-0.5,1.2-0.5,1.9v3.7H281.5z M261.6,46   L261.6,46L261.6,46z M265.3,62.5L265.3,62.5z M278,42.6L278,42.6z"
   id="path26"
   style="fill:#ffffff;fill-opacity:1" />
	<path
   class="st2"
   d="M321.8,50.1c-0.1,1.6-1.5,2.7-3,2.6c-1.4-0.1-2.5-1.2-2.6-2.6v-4c0.1-1.2-0.4-2.4-1.5-3   c-0.6-0.4-1.4-0.5-2-0.6h-9.6c-2.4-0.2-4.6,1-5.7,3.1c-0.6,1.1-0.9,2.4-1,3.6v16c-0.1,1.6-1.5,2.7-3,2.6c-1.4-0.1-2.5-1.2-2.6-2.6   V39.8c0-1.6,1.2-2.9,2.9-2.9c1.2,0,2.2,0.7,2.6,1.9c2.1-1.2,4.5-1.9,6.9-1.9h9.6c1.5,0,3.1,0.4,4.5,1.1c3.1,1.5,5,4.7,4.7,8.1   L321.8,50.1z"
   id="path28"
   style="fill:#ffffff;fill-opacity:1" />
	<path
   class="st2"
   d="M351.8,50.7c3,1.5,4.9,4.7,4.7,8.1c0,1.5-0.4,3.1-1.1,4.5c-1.5,3.1-4.7,4.9-8.1,4.7h-12.7   c-1.5,0-3.1-0.4-4.5-1.1c-3.1-1.5-5-4.7-4.7-8.1c0.1-1.6,1.5-2.7,3-2.6c1.4,0.1,2.5,1.2,2.6,2.6c-0.1,1.2,0.4,2.4,1.5,3   c0.6,0.4,1.4,0.5,2,0.6h12.7c1.2,0.1,2.4-0.5,3-1.5c0.4-0.6,0.5-1.4,0.5-2.1c0.1-1.2-0.5-2.4-1.5-3c-0.6-0.4-1.4-0.5-2-0.6h-12.6   c-3.4,0.1-6.6-1.7-8.1-4.7c-0.6-1.4-1-2.9-1.1-4.5c-0.1-3.4,1.7-6.6,4.7-8.1c1.4-0.6,2.9-1.1,4.5-1.1h12.7c3.4-0.1,6.6,1.7,8.1,4.7   c0.6,1.4,1,2.9,1.1,4.5c0.1,1.6-1.1,2.9-2.6,3c-1.6,0.1-2.9-1.1-3-2.6c0-0.1,0-0.2,0-0.4l0,0c0-0.7-0.2-1.4-0.5-2.1   c-0.6-1.1-1.7-1.6-3-1.5h-12.9c-0.7,0-1.4,0.2-2,0.6c-1.1,0.6-1.6,1.7-1.5,3c0,0.7,0.2,1.4,0.5,2.1c0.6,1.1,1.7,1.6,3,1.5h12.7   C348.8,49.6,350.4,50,351.8,50.7L351.8,50.7z M331.1,46.1L331.1,46.1z M334.6,42.6L334.6,42.6z M334.6,62.5L334.6,62.5z    M347.3,55.5L347.3,55.5z M350.9,58.9L350.9,58.9z"
   id="path30"
   style="fill:#ffffff;fill-opacity:1" />
	<path
   class="st2"
   d="M369.3,68.1c-1.5,0-3.1-0.4-4.5-1.1c-3.1-1.5-5-4.7-4.7-8.1v-13c0-1.5,0.4-3,1.1-4.4c1.6-3,4.7-4.7,8.1-4.6   H382c1.5,0,3.1,0.4,4.5,1.1c3,1.5,4.9,4.7,4.7,8.1v6.4c0,1.6-1.2,2.9-2.9,2.9h-22.7v3.5c-0.1,1.2,0.4,2.4,1.5,3   c0.6,0.4,1.4,0.5,2,0.6h19.1c1.6,0,2.9,1.2,2.9,2.9c0,1.6-1.2,2.9-2.9,2.9L369.3,68.1L369.3,68.1z M385.5,49.7v-3.5   c0.1-1.2-0.4-2.4-1.5-3c-0.6-0.2-1.4-0.5-2-0.5h-12.7c-1.2-0.1-2.4,0.4-3,1.5c-0.4,0.6-0.5,1.2-0.5,1.9v3.7L385.5,49.7z M365.6,46   L365.6,46L365.6,46z M369.3,62.5L369.3,62.5z M382,42.6L382,42.6z"
   id="path32"
   style="fill:#ffffff;fill-opacity:1" />
</g>
</svg>
