<svg xmlns="http://www.w3.org/2000/svg" xmlns:xlink="http://www.w3.org/1999/xlink" viewBox="0 0 336.38 92.98"><defs><style>.cls-1{fill:url(#linear-gradient);}.cls-2{fill:url(#linear-gradient-2);}.cls-3{isolation:isolate;}.cls-4{fill:#010101;}</style><linearGradient id="linear-gradient" x1="2.2" y1="28.35" x2="97.02" y2="28.35" gradientUnits="userSpaceOnUse"><stop offset="0" stop-color="#502f8c"/><stop offset="1" stop-color="#241240"/></linearGradient><linearGradient id="linear-gradient-2" x1="25.54" y1="72.55" x2="74.2" y2="72.55" xlink:href="#linear-gradient"/></defs><g id="Layer_2" data-name="Layer 2"><g id="Layer_1-2" data-name="Layer 1"><path class="cls-1" d="M53.89,25.62a8.7,8.7,0,0,1-8.26,0L4.11.61C1.86-.77,0,.29,0,2.92V24.34a9.29,9.29,0,0,0,4.14,7.23L45.6,55.72a9.3,9.3,0,0,0,8.32,0L95.41,31.57a9.33,9.33,0,0,0,4.18-7.23V2.92c0-2.63-1.87-3.69-4.15-2.31Z"/><path class="cls-2" d="M28.16,52.76c-2.24-1.41-4.07-.38-4.07,2.25V75.5a8.94,8.94,0,0,0,4.2,7.13L45.54,92A10,10,0,0,0,54,92l17.25-9.41a8.9,8.9,0,0,0,4.24-7.13V55c0-2.63-1.83-3.66-4.08-2.25l-17.53,11a8.4,8.4,0,0,1-8.16,0Z"/><g class="cls-3"><path class="cls-4" d="M140.94,29.48a2.4,2.4,0,0,1,.66,3.32L131.25,48.29V61a2.4,2.4,0,0,1-4.79,0V48.29L116.11,32.8a2.39,2.39,0,0,1,4-2.66l8.76,13.13,8.77-13.13a2.4,2.4,0,0,1,3.32-.66Z"/><path class="cls-4" d="M152.14,63.4a6.85,6.85,0,0,1-6.5-3.81,8.58,8.58,0,0,1-.88-3.57V45.79a6.87,6.87,0,0,1,3.81-6.5,8.55,8.55,0,0,1,3.57-.88h10.23a6.87,6.87,0,0,1,6.5,3.81,8.58,8.58,0,0,1,.88,3.57V56a6.85,6.85,0,0,1-3.81,6.5,8.58,8.58,0,0,1-3.57.88Zm-2.39-5.75a2.35,2.35,0,0,0,2.39,1.21h10.21a4,4,0,0,0,1.65-.45A2.35,2.35,0,0,0,165.21,56V45.81a4.44,4.44,0,0,0-.45-1.65A2.37,2.37,0,0,0,162.37,43H152.16a4.35,4.35,0,0,0-1.65.45,2.37,2.37,0,0,0-1.21,2.39V56A4,4,0,0,0,149.75,57.65ZM149.3,56v0ZM152.14,43h0Zm10.23,15.91h0Zm2.84-13.07v0Z"/><path class="cls-4" d="M179.91,63.4a8.58,8.58,0,0,1-3.57-.88,6.85,6.85,0,0,1-3.81-6.5V40.68a2.27,2.27,0,1,1,4.54,0V56a2.35,2.35,0,0,0,1.21,2.39,4,4,0,0,0,1.65.45h10.21a2.36,2.36,0,0,0,2.39-1.21A4,4,0,0,0,193,56V40.68a2.27,2.27,0,1,1,4.54,0V56a8.58,8.58,0,0,1-.88,3.57,6.87,6.87,0,0,1-6.5,3.81H179.91Zm0-4.54h0ZM193,56h0v0Z"/><path class="cls-4" d="M210.76,62.15,200.54,41.7a2.27,2.27,0,1,1,4.06-2l8.2,16.38L221,39.67a2.27,2.27,0,1,1,4.06,2L214.83,62.15a2.28,2.28,0,0,1-4.07,0Z"/><path class="cls-4" d="M235.45,63.4a8.58,8.58,0,0,1-3.57-.88,6.85,6.85,0,0,1-3.81-6.5V45.62a8.22,8.22,0,0,1,.89-3.51,6.91,6.91,0,0,1,6.49-3.7h10.23a8.58,8.58,0,0,1,3.57.88,6.87,6.87,0,0,1,3.81,6.5v5.12a2.27,2.27,0,0,1-2.27,2.27H232.61V56a2.35,2.35,0,0,0,1.21,2.39,4,4,0,0,0,1.65.45h15.32a2.27,2.27,0,1,1,0,4.54H235.45Zm13.07-14.77V45.79a2.36,2.36,0,0,0-1.21-2.39,4.23,4.23,0,0,0-1.65-.45H235.45a2.39,2.39,0,0,0-2.4,1.15,4,4,0,0,0-.44,1.54v3Zm-15.91-3h0v0Zm2.84,13.23h0Zm10.23-15.92h0Z"/><path class="cls-4" d="M280.84,49a2.28,2.28,0,0,1-4.55,0v-3.2a2.36,2.36,0,0,0-1.21-2.39,4.2,4.2,0,0,0-1.64-.45h-7.66a4.74,4.74,0,0,0-4.62,2.47,7.23,7.23,0,0,0-.77,2.94V61.13a2.28,2.28,0,0,1-4.55,0V40.68a2.27,2.27,0,0,1,4.4-.79,10.19,10.19,0,0,1,5.54-1.48h7.67a8.55,8.55,0,0,1,3.57.88,6.88,6.88,0,0,1,3.82,6.5Z"/><path class="cls-4" d="M304.79,49.51A6.88,6.88,0,0,1,308.61,56a8.76,8.76,0,0,1-.88,3.57,6.88,6.88,0,0,1-6.51,3.81H291a8.52,8.52,0,0,1-3.57-.88,6.86,6.86,0,0,1-3.82-6.5,2.28,2.28,0,0,1,4.55,0,2.33,2.33,0,0,0,1.21,2.39,4,4,0,0,0,1.65.45h10.2a2.38,2.38,0,0,0,2.4-1.21,4.07,4.07,0,0,0,.44-1.65,2.34,2.34,0,0,0-1.21-2.37,4,4,0,0,0-1.65-.45H291a6.89,6.89,0,0,1-6.51-3.81,8.76,8.76,0,0,1-.88-3.58,6.88,6.88,0,0,1,3.82-6.5,8.52,8.52,0,0,1,3.57-.88h10.22a6.88,6.88,0,0,1,6.51,3.81,8.76,8.76,0,0,1,.88,3.57,2.28,2.28,0,1,1-4.55,0v0a4.11,4.11,0,0,0-.44-1.66,2.38,2.38,0,0,0-2.4-1.21H291a4.35,4.35,0,0,0-1.65.45,2.35,2.35,0,0,0-1.21,2.38,4.1,4.1,0,0,0,.44,1.65,2.37,2.37,0,0,0,2.4,1.2h10.22a8.7,8.7,0,0,1,3.57.88Zm-16.63-3.73h0ZM291,43h0Zm0,15.91h0Zm10.22-5.68h0ZM304.06,56h0Z"/><path class="cls-4" d="M318.77,63.4a8.52,8.52,0,0,1-3.57-.88,6.86,6.86,0,0,1-3.82-6.5V45.62a8.31,8.31,0,0,1,.9-3.51,6.9,6.9,0,0,1,6.49-3.7H329a8.58,8.58,0,0,1,3.58.88,6.89,6.89,0,0,1,3.81,6.5v5.12a2.27,2.27,0,0,1-2.27,2.27H315.93V56a2.33,2.33,0,0,0,1.21,2.39,4,4,0,0,0,1.65.45h15.32a2.27,2.27,0,0,1,0,4.54H318.77Zm13.06-14.77V45.79a2.36,2.36,0,0,0-1.2-2.39A4.23,4.23,0,0,0,329,43H318.77a2.4,2.4,0,0,0-2.41,1.15,3.72,3.72,0,0,0-.43,1.54v3Zm-15.9-3h0v0Zm2.84,13.23h0ZM329,42.94h0Z"/></g></g></g></svg>